<?xml version="1.0" encoding="UTF-8" standalone="no"?>
<!-- Generator: Adobe Illustrator 17.1.0, SVG Export Plug-In . SVG Version: 6.00 Build 0)  -->

<svg
   xmlns:dc="http://purl.org/dc/elements/1.1/"
   xmlns:cc="http://creativecommons.org/ns#"
   xmlns:rdf="http://www.w3.org/1999/02/22-rdf-syntax-ns#"
   xmlns:svg="http://www.w3.org/2000/svg"
   xmlns="http://www.w3.org/2000/svg"
   xmlns:sodipodi="http://sodipodi.sourceforge.net/DTD/sodipodi-0.dtd"
   xmlns:inkscape="http://www.inkscape.org/namespaces/inkscape"
   version="1.1"
   id="Layer_1"
   x="0px"
   y="0px"
   width="17.082594"
   height="13.991918"
   viewBox="0 0 17.082594 13.991918"
   enable-background="new 0 0 282.9 60"
   xml:space="preserve"
   inkscape:version="0.48.4 r9939"
   sodipodi:docname="reference_img_2.svg"><metadata
     id="metadata217"><rdf:RDF><cc:Work
         rdf:about=""><dc:format>image/svg+xml</dc:format><dc:type
           rdf:resource="http://purl.org/dc/dcmitype/StillImage" /><dc:title /></cc:Work></rdf:RDF></metadata><defs
     id="defs215" /><sodipodi:namedview
     pagecolor="#ffffff"
     bordercolor="#666666"
     borderopacity="1"
     objecttolerance="10"
     gridtolerance="10"
     guidetolerance="10"
     inkscape:pageopacity="0"
     inkscape:pageshadow="2"
     inkscape:window-width="1301"
     inkscape:window-height="744"
     id="namedview213"
     showgrid="false"
     fit-margin-top="0"
     fit-margin-left="0"
     fit-margin-right="0"
     fit-margin-bottom="0"
     inkscape:zoom="22.627417"
     inkscape:cx="8.2398143"
     inkscape:cy="11.88455"
     inkscape:window-x="65"
     inkscape:window-y="24"
     inkscape:window-maximized="1"
     inkscape:current-layer="Layer_1"
     inkscape:snap-nodes="true" /><path
     style="fill:#ffffff;fill-opacity:1"
     inkscape:connector-curvature="0"
     id="path57"
     d="M 17.584137,-0.07923792 V 14.681406 H -0.11098408 V -0.07923792 H 17.584137 M 18.763811,-1.3092917 H -1.2906587 V 15.911459 H 18.763811 V -1.3092917 l 0,0 z" /><rect
     style="opacity:0;fill:#ffffff;fill-opacity:1;stroke:#ffffff;stroke-width:1;stroke-opacity:1"
     id="rect3194"
     width="16.43609"
     height="13.447711"
     x="1.5180857"
     y="1.8670695" /><text
     xml:space="preserve"
     style="font-size:14.67033005px;font-style:normal;font-weight:normal;line-height:125%;letter-spacing:0px;word-spacing:0px;fill:#000000;fill-opacity:1;stroke:none;font-family:Sans"
     x="-1.2607316"
     y="11.146012"
     id="text3282"
     sodipodi:linespacing="125%"
     transform="scale(0.93483174,1.0697112)"><tspan
       sodipodi:role="line"
       id="tspan3284"
       x="-1.2607316"
       y="11.146012"
       style="stroke:none;stroke-opacity:1;fill:#a8afff;fill-opacity:1">[1]</tspan></text>
<path
     style="opacity:0;fill:#ffffff;fill-opacity:1;stroke:#ffffff;stroke-width:0.04419417;stroke-opacity:1"
     d="m -1.2530943,7.2957636 0,-8.5736697 9.9878836,0 9.9878827,0 0,8.5736697 0,8.5736694 -9.9878827,0 -9.9878836,0 0,-8.5736694 z m 18.8709123,0.022097 0,-7.40252412 -8.8830287,0 -8.88302918,0 0,7.40252412 0,7.4025234 8.88302918,0 8.8830287,0 0,-7.4025234 z"
     id="path3004"
     inkscape:connector-curvature="0" /><path
     style="opacity:0;fill:#ffffff;fill-opacity:1;stroke:#ffffff;stroke-width:0.04419417;stroke-opacity:1"
     d="m -1.2530943,7.2957636 0,-8.5736697 9.9878836,0 9.9878827,0 0,8.5736697 0,8.5736694 -9.9878827,0 -9.9878836,0 0,-8.5736694 z m 18.8709123,0.022097 0,-7.40252412 -8.8830287,0 -8.88302918,0 0,7.40252412 0,7.4025234 8.88302918,0 8.8830287,0 0,-7.4025234 z"
     id="path3006"
     inkscape:connector-curvature="0" /><path
     style="opacity:0;fill:#ffffff;fill-opacity:1;stroke:#ffffff;stroke-width:0.04419417;stroke-opacity:1"
     d="m -1.2530943,7.2957636 0,-8.5736697 9.9878836,0 9.9878827,0 0,8.5736697 0,8.5736694 -9.9878827,0 -9.9878836,0 0,-8.5736694 z m 18.8709123,0.022097 0,-7.40252412 -8.8830287,0 -8.88302918,0 0,7.40252412 0,7.4025234 8.88302918,0 8.8830287,0 0,-7.4025234 z"
     id="path3008"
     inkscape:connector-curvature="0" /><path
     style="opacity:0;fill:#ffffff;fill-opacity:1;stroke:#ffffff;stroke-width:0.04419417;stroke-opacity:1"
     d="m -1.2530943,7.2957636 0,-8.5736697 9.9878836,0 9.9878827,0 0,8.5736697 0,8.5736694 -9.9878827,0 -9.9878836,0 0,-8.5736694 z m 18.8709123,0.022097 0,-7.40252412 -8.8830287,0 -8.88302918,0 0,7.40252412 0,7.4025234 8.88302918,0 8.8830287,0 0,-7.4025234 z"
     id="path3010"
     inkscape:connector-curvature="0" /><path
     style="opacity:0;fill:#ffffff;fill-opacity:1;stroke:#ffffff;stroke-width:0.04419417;stroke-opacity:1"
     d="m -1.2530943,7.2957636 0,-8.5736697 9.9878836,0 9.9878827,0 0,8.5736697 0,8.5736694 -9.9878827,0 -9.9878836,0 0,-8.5736694 z m 18.8709123,0.022097 0,-7.40252412 -8.8830287,0 -8.88302918,0 0,7.40252412 0,7.4025234 8.88302918,0 8.8830287,0 0,-7.4025234 z"
     id="path3012"
     inkscape:connector-curvature="0" /><path
     style="opacity:0;fill:#ffffff;fill-opacity:1;stroke:#ffffff;stroke-width:0.04419417;stroke-opacity:1"
     d="m -1.2530943,7.2957636 0,-8.5736697 9.9878836,0 9.9878827,0 0,8.5736697 0,8.5736694 -9.9878827,0 -9.9878836,0 0,-8.5736694 z m 18.8709123,0.022097 0,-7.40252412 -8.8830287,0 -8.88302918,0 0,7.40252412 0,7.4025234 8.88302918,0 8.8830287,0 0,-7.4025234 z"
     id="path3014"
     inkscape:connector-curvature="0" /><path
     style="opacity:0;fill:#ffffff;fill-opacity:1;stroke:#ffffff;stroke-width:0.04419417;stroke-opacity:1"
     d="m -1.3276719,-1.3455785 c -0.057965,0.82394802 -0.00832,1.66703638 -0.024859,2.4983519 0,4.9055533 0,9.8111066 0,14.7166596 0.1523403,0.212244 0.52195776,0.04734 0.76234944,0.09944 6.43761806,0 12.87523546,0 19.31285346,0 0.212244,-0.152341 0.04734,-0.521958 0.09944,-0.76235 0,-5.4948086 0,-10.9896173 0,-16.4844261 -0.152341,-0.2122438 -0.521958,-0.047338 -0.76235,-0.099437 -6.437618,0 -12.875235,0 -19.3128531,0 l -0.04066,0.017318 -0.033918,0.014447 z M 8.7347893,0.01477348 c 2.9278637,0 5.8557277,0 8.7835917,0 0,4.86872492 0,9.73744992 0,14.60617352 -5.855728,0 -11.711456,0 -17.56718398,0 0,-4.8687236 0,-9.7374486 0,-14.60617352 2.92786398,0 5.85572798,0 8.78359228,0 z"
     id="path3016"
     inkscape:connector-curvature="0" /><path
     style="opacity:0;fill:#ffffff;fill-opacity:1;stroke:#ffffff;stroke-width:0.04419417;stroke-opacity:1"
     d="m -1.3718661,-1.3897726 c -0.057965,0.82394795 -0.00832,1.66703628 -0.024859,2.4983519 0,4.9350162 0,9.8700317 0,14.8050477 0.1523403,0.212244 0.52195778,0.04734 0.76234947,0.09944 6.46708063,0 12.93416163,0 19.40124163,0 0.212244,-0.15234 0.04734,-0.521958 0.09944,-0.76235 0,-5.5242706 0,-11.0485426 0,-16.5728143 -0.15234,-0.2122438 -0.521958,-0.047338 -0.762349,-0.099437 -6.467081,0 -12.9341616,0 -19.4012422,0 l -0.04066,0.017318 -0.033918,0.014447 z M 8.7347893,0.01477348 c 2.9131317,0 5.8262647,0 8.7393977,0 0,4.85399322 0,9.70798692 0,14.56197952 -5.826266,0 -11.6525308,0 -17.47879588,0 0,-4.8539926 0,-9.7079863 0,-14.56197952 2.91313268,0 5.82626508,0 8.73939818,0 z"
     id="path3018"
     inkscape:connector-curvature="0" /><path
     style="opacity:0;fill:#ffffff;fill-opacity:1;stroke:#ffffff;stroke-width:0.04419417;stroke-opacity:1"
     d="m -1.3718661,-1.3897726 c -0.057965,0.82394795 -0.00832,1.66703628 -0.024859,2.4983519 0,4.9350162 0,9.8700317 0,14.8050477 0.1523403,0.212244 0.52195778,0.04734 0.76234947,0.09944 6.46708063,0 12.93416163,0 19.40124163,0 0.212244,-0.15234 0.04734,-0.521958 0.09944,-0.76235 0,-5.5242706 0,-11.0485426 0,-16.5728143 -0.15234,-0.2122438 -0.521958,-0.047338 -0.762349,-0.099437 -6.467081,0 -12.9341616,0 -19.4012422,0 l -0.04066,0.017318 -0.033918,0.014447 z M 8.7347893,0.01477348 c 2.9131317,0 5.8262647,0 8.7393977,0 0,4.85399322 0,9.70798692 0,14.56197952 -5.826266,0 -11.6525308,0 -17.47879588,0 0,-4.8539926 0,-9.7079863 0,-14.56197952 2.91313268,0 5.82626508,0 8.73939818,0 z"
     id="path3020"
     inkscape:connector-curvature="0" /><rect
     style="opacity:0;fill:#6c5d53;fill-opacity:1;stroke:#ffffff;stroke-width:1;stroke-opacity:1"
     id="rect3024"
     width="17.412504"
     height="14.318913"
     x="-0.0090278145"
     y="0.045750856" /><path
     style="opacity:0;color:#000000;fill:#00ffff;fill-opacity:1;fill-rule:nonzero;stroke:#ffffff;stroke-width:0.00008632;stroke-linecap:butt;stroke-linejoin:miter;stroke-miterlimit:4;stroke-opacity:1;stroke-dasharray:none;stroke-dashoffset:0;marker:none;visibility:visible;display:inline;overflow:visible;enable-background:accumulate"
     d="M 8.4475269,0.39042375 C 7.5283177,0.43567227 6.6471699,0.74744793 5.7473378,0.91952797 5.4432075,0.98159569 5.6430741,1.3911908 5.5859541,1.6112878 5.6074111,1.9035367 5.5433711,2.2459096 5.6342911,2.508982 5.9655605,2.545983 6.3044257,2.3700302 6.6377404,2.3273062 c 0.4403238,-0.099983 0.8801889,-0.2019964 1.320888,-0.300317 0.02381,2.8278809 0.010007,5.6559421 0.013811,8.4839008 -0.7086077,0.01845 -1.4277695,-0.0095 -2.1298146,0.04033 -0.1285948,0.203342 -0.03695,0.514897 -0.071231,0.762067 0.031906,0.208948 -0.0739,0.498987 0.068677,0.660156 0.5919247,0.100243 1.2063471,0.03197 1.8064362,0.05457 1.3398749,-0.01531 2.68987,0.01381 4.023385,-0.03247 0.132374,-0.202494 0.024,-0.51937 0.05905,-0.766497 -0.05769,-0.21466 0.136532,-0.636137 -0.142247,-0.69656 -0.681779,-0.008 -1.363566,-0.01533 -2.0453641,-0.02159 0,-3.3403433 0,-6.6806864 0,-10.02102936 C 9.3889923,0.27769066 9.0193758,0.44158403 8.7789846,0.38906532 8.6684978,0.38938976 8.5579978,0.38796971 8.4475269,0.39042375 z"
     id="path2995"
     inkscape:connector-curvature="0" /><path
     style="fill:#00ffff;stroke:#ffffff;stroke-opacity:1;stroke-width:0.00195312000000000;stroke-linejoin:miter;stroke-linecap:butt;opacity:0;color:#000000;fill-opacity:1;fill-rule:nonzero;stroke-miterlimit:4;stroke-dasharray:none;stroke-dashoffset:0;marker:none;marker-start:none;marker-mid:none;marker-end:none;visibility:visible;display:inline;overflow:visible;enable-background:accumulate"
     d="M 14.21875 -0.09375 L 14.1875 -0.0625 C 14.14203 0.33188051 14.16298 0.7604432 14.1875 1.15625 C 14.397086 1.2886227 14.714439 1.183081 14.96875 1.21875 C 15.214992 1.248721 15.577657 1.146129 15.75 1.25 L 15.75 12.8125 C 15.229997 12.83309 14.69676 12.77053 14.1875 12.84375 C 14.14124 13.223499 14.16354 13.618785 14.1875 14 C 14.397086 14.132373 14.714439 14.02683 14.96875 14.0625 C 15.688239 14.05099 16.411399 14.10286 17.125 14.0625 C 17.257372 13.852913 17.15183 13.50431 17.1875 13.25 L 17.1875 0 C 17.035159 -0.2122438 16.677892 -0.041651081 16.4375 -0.09375 C 15.70328 -0.08223921 14.947082 -0.13411261 14.21875 -0.09375 z M 8.4375 0.375 C 7.5182908 0.42024852 6.6498321 0.73416996 5.75 0.90625 C 5.4458697 0.96831772 5.65087 1.404903 5.59375 1.625 C 5.615207 1.9172489 5.53408 2.2369276 5.625 2.5 C 5.7078173 2.5092502 5.7914386 2.5119599 5.875 2.5 C 5.9585614 2.4880401 6.0411053 2.4598518 6.125 2.4375 C 6.2927893 2.3927964 6.4583427 2.333862 6.625 2.3125 C 7.0653238 2.212517 7.5280509 2.1295706 7.96875 2.03125 C 7.99256 4.8591307 7.964946 7.6720415 7.96875 10.5 C 7.2601423 10.51845 6.5457951 10.51267 5.84375 10.5625 C 5.7151552 10.765842 5.815531 11.06533 5.78125 11.3125 C 5.813156 11.521448 5.701173 11.807581 5.84375 11.96875 C 6.4356747 12.068993 7.0561609 12.00865 7.65625 12.03125 C 8.3261874 12.023595 8.9845775 12.031669 9.65625 12.03125 C 10.327922 12.030831 10.989493 12.02314 11.65625 12 C 11.788624 11.797506 11.6837 11.465877 11.71875 11.21875 C 11.66106 11.00409 11.872529 10.591673 11.59375 10.53125 C 10.911971 10.52325 10.213048 10.50626 9.53125 10.5 L 9.53125 0.5 C 9.3789114 0.28782404 9.0216412 0.42751871 8.78125 0.375 C 8.6707632 0.37532444 8.5479709 0.37254596 8.4375 0.375 z "
     id="path2997" /><path
     style="opacity:0;color:#000000;fill:#55ffff;fill-opacity:1;fill-rule:nonzero;stroke:#ffffff;stroke-width:0.00008632000000000;stroke-linecap:butt;stroke-linejoin:miter;stroke-miterlimit:4;stroke-opacity:1;stroke-dasharray:none;stroke-dashoffset:0;marker:none;visibility:visible;display:inline;overflow:visible;enable-background:accumulate"
     d="m 14.166805,-0.0639476 c -0.04547,0.39438052 -0.03202,0.81737959 -0.0075,1.2131864 0.209587,0.1323727 0.534915,0.023108 0.789226,0.058777 0.246243,0.029971 0.612104,-0.059677 0.784446,0.044194 0,3.852259 0,7.7045175 0,11.5567772 -0.520003,0.02059 -1.056871,-0.04146 -1.566131,0.03176 -0.04626,0.379749 -0.03146,0.787777 -0.0075,1.168992 0.209587,0.132373 0.534915,0.02311 0.789226,0.05878 0.719489,-0.01151 1.448379,0.02304 2.16198,-0.01732 0.132373,-0.209587 0.02311,-0.534916 0.05878,-0.789226 0,-4.4194178 0,-8.8388352 0,-13.25825257 -0.15234,-0.21224381 -0.521958,-0.04733798 -0.762349,-0.0994369 -0.734221,0.01151079 -1.477843,-0.02304459 -2.206175,0.01731802 l -0.03392,0.01444655 z"
     id="path3773"
     inkscape:connector-curvature="0" /><path
     style="opacity:0;color:#000000;fill:#00ffff;fill-opacity:1;fill-rule:nonzero;stroke:#ffffff;stroke-width:0.00008632;stroke-linecap:butt;stroke-linejoin:miter;stroke-miterlimit:4;stroke-opacity:1;stroke-dasharray:none;stroke-dashoffset:0;marker:none;visibility:visible;display:inline;overflow:visible;enable-background:accumulate"
     d="M 8.7281599,0.39180481 C 8.2489094,0.36058011 7.7796141,0.41869244 7.3202179,0.55749602 6.7597064,0.7012047 6.1783041,0.80133301 5.6311613,0.97375467 5.5313155,1.2705985 5.6074913,1.6386412 5.5740142,1.9620441 5.5836354,2.172898 5.4607605,2.6664894 5.8320604,2.508982 6.5464531,2.3516067 7.2572833,2.1780863 7.9727157,2.0256082 c 0.043964,2.8281588 0.019461,5.6568803 0.02624,8.4852818 -0.7158,0.01154 -1.4410117,-0.02303 -2.1509315,0.01732 -0.1323727,0.209587 -0.023108,0.534916 -0.058777,0.789226 0.058697,0.221036 -0.138213,0.654461 0.1436311,0.718156 1.9003495,0 3.8006989,0 5.7010487,0 0.212244,-0.152341 0.04734,-0.521958 0.09944,-0.76235 -0.05016,-0.240848 0.109826,-0.609233 -0.09944,-0.762349 -0.703424,0 -1.406848,0 -2.1102721,0 0,-3.3403433 0,-6.6806864 0,-10.02102936 C 9.3713146,0.27754536 9.0016981,0.44343149 8.7613068,0.39173905 l -0.033147,6.576e-5 z"
     id="path3775"
     inkscape:connector-curvature="0" /><path
     style="opacity:0;color:#000000;fill:#00ffff;fill-opacity:1;fill-rule:nonzero;stroke:#00ffff;stroke-width:0.00008632;stroke-linecap:butt;stroke-linejoin:miter;stroke-miterlimit:4;stroke-opacity:1;stroke-dasharray:none;stroke-dashoffset:0;marker:none;visibility:visible;display:inline;overflow:visible;enable-background:accumulate"
     d="M 14.1875 -0.09375 L 14.15625 -0.0625 C 14.11078 0.33188051 14.13173 0.7604432 14.15625 1.15625 C 14.365837 1.2886227 14.683189 1.183081 14.9375 1.21875 C 15.122182 1.2412282 15.376251 1.2023785 15.5625 1.21875 C 15.624883 1.2254207 15.675665 1.2240323 15.71875 1.25 L 15.71875 12.8125 C 15.198747 12.83309 14.66551 12.77053 14.15625 12.84375 C 14.10999 13.223499 14.13229 13.618785 14.15625 14 C 14.365837 14.132373 14.683189 14.02683 14.9375 14.0625 C 15.656989 14.05099 16.411399 14.10286 17.125 14.0625 C 17.158093 14.010103 17.147321 13.938946 17.15625 13.875 C 17.183037 13.683161 17.129498 13.440732 17.15625 13.25 L 17.15625 0 C 17.00391 -0.2122438 16.646641 -0.041651081 16.40625 -0.09375 C 15.672029 -0.08223921 14.915832 -0.13411261 14.1875 -0.09375 z "
     id="path3777" /></svg>